{"asset":{"generator":"Khronos glTF Blender I/O v3.2.43","version":"2.0"},"scene":0,"scenes":[{"name":"Scene","nodes":[1]}],"nodes":[{"mesh":0,"name":"Text","rotation":[0.7080898284912109,0,0,0.7061223983764648]},{"children":[0],"mesh":1,"name":"Cube","rotation":[-0.018416058272123337,-0.018416058272123337,0.017761334776878357,0.9995030164718628],"translation":[0,0,0.009999999776482582]}],"animations":[{"channels":[{"sampler":0,"target":{"node":1,"path":"translation"}},{"sampler":1,"target":{"node":1,"path":"rotation"}}],"name":"CubeAction","samplers":[{"input":12,"interpolation":"LINEAR","output":13},{"input":14,"interpolation":"LINEAR","output":15}]}],"materials":[{"doubleSided":true,"name":"Material.001","pbrMetallicRoughness":{"baseColorFactor":[0.9113957285881042,0.9113957285881042,0.9113957285881042,1],"metallicFactor":0,"roughnessFactor":0.5}},{"doubleSided":true,"name":"dunkelblau","pbrMetallicRoughness":{"baseColorFactor":[0.014340928755700588,0.008071362972259521,0.8000000715255737,1],"metallicFactor":0,"roughnessFactor":0.4000000059604645}},{"doubleSided":true,"name":"hellbau","pbrMetallicRoughness":{"baseColorFactor":[0.09257631003856659,0.1725178211927414,0.32901036739349365,1],"metallicFactor":0,"roughnessFactor":0.5}}],"meshes":[{"name":"Text","primitives":[{"attributes":{"POSITION":0,"NORMAL":1,"TEXCOORD_0":2},"indices":3,"material":0}]},{"name":"Cube","primitives":[{"attributes":{"POSITION":4,"NORMAL":5,"TEXCOORD_0":6},"indices":7,"material":1},{"attributes":{"POSITION":8,"NORMAL":9,"TEXCOORD_0":10},"indices":11,"material":2}]}],"accessors":[{"bufferView":0,"componentType":5126,"count":1265,"max":[2.984499931335449,0,0.009000000543892384],"min":[-2.9704999923706055,0,-0.6820000410079956],"type":"VEC3"},{"bufferView":1,"componentType":5126,"count":1265,"type":"VEC3"},{"bufferView":2,"componentType":5126,"count":1265,"type":"VEC2"},{"bufferView":3,"componentType":5123,"count":2883,"type":"SCALAR"},{"bufferView":4,"componentType":5126,"count":1048,"max":[4.778956890106201,2.3472909927368164,1.020766258239746],"min":[-4.945292949676514,-5.210748195648193,-1.042710542678833],"type":"VEC3"},{"bufferView":5,"componentType":5126,"count":1048,"type":"VEC3"},{"bufferView":6,"componentType":5126,"count":1048,"type":"VEC2"},{"bufferView":7,"componentType":5123,"count":1722,"type":"SCALAR"},{"bufferView":8,"componentType":5126,"count":870,"max":[4.778956890106201,2.3472909927368164,1.020766258239746],"min":[-4.945292949676514,-5.210748195648193,-1.042710542678833],"type":"VEC3"},{"bufferView":9,"componentType":5126,"count":870,"type":"VEC3"},{"bufferView":10,"componentType":5126,"count":870,"type":"VEC2"},{"bufferView":11,"componentType":5123,"count":1386,"type":"SCALAR"},{"bufferView":12,"componentType":5126,"count":11,"max":[0.4166666666666667],"min":[0],"type":"SCALAR"},{"bufferView":13,"componentType":5126,"count":11,"type":"VEC3"},{"bufferView":14,"componentType":5126,"count":68,"max":[2.875],"min":[0.08333333333333333],"type":"SCALAR"},{"bufferView":15,"componentType":5126,"count":68,"type":"VEC4"}],"bufferViews":[{"buffer":0,"byteLength":15180,"byteOffset":0},{"buffer":0,"byteLength":15180,"byteOffset":15180},{"buffer":0,"byteLength":10120,"byteOffset":30360},{"buffer":0,"byteLength":5766,"byteOffset":40480},{"buffer":0,"byteLength":12576,"byteOffset":46248},{"buffer":0,"byteLength":12576,"byteOffset":58824},{"buffer":0,"byteLength":8384,"byteOffset":71400},{"buffer":0,"byteLength":3444,"byteOffset":79784},{"buffer":0,"byteLength":10440,"byteOffset":83228},{"buffer":0,"byteLength":10440,"byteOffset":93668},{"buffer":0,"byteLength":6960,"byteOffset":104108},{"buffer":0,"byteLength":2772,"byteOffset":111068},{"buffer":0,"byteLength":44,"byteOffset":113840},{"buffer":0,"byteLength":132,"byteOffset":113884},{"buffer":0,"byteLength":272,"byteOffset":114016},{"buffer":0,"byteLength":1088,"byteOffset":114288}],"buffers":[{"byteLength":115376,"uri":"data:application/octet-stream;base64,"}]}